<?xml version="1.0" encoding="UTF-8"?>
<svg version="1.1" xmlns="http://www.w3.org/2000/svg" width="512" height="512">
<path d="M0 0 C1.3365287 -0.01469078 1.3365287 -0.01469078 2.70005798 -0.02967834 C22.60828118 -0.20334589 41.90456474 -0.03544421 61.4453125 4.23828125 C62.92451172 4.55974121 62.92451172 4.55974121 64.43359375 4.88769531 C113.29447026 15.88619536 161.14969796 42.34158506 193.4453125 81.23828125 C194.22777344 82.1096875 195.01023437 82.98109375 195.81640625 83.87890625 C224.76774894 116.38002403 243.92344787 159.36421165 250.4453125 202.23828125 C250.62046387 203.358396 250.79561523 204.47851074 250.97607422 205.63256836 C252.5800588 216.94273439 252.84456538 228.13833039 252.8203125 239.55078125 C252.81949677 240.99969254 252.81949677 240.99969254 252.81866455 242.47787476 C252.67723335 297.28359543 233.91294268 351.1405859 198.4453125 393.23828125 C198.00074707 393.77163086 197.55618164 394.30498047 197.09814453 394.85449219 C188.22536736 405.48522354 179.07675597 415.36819695 168.21484375 424.02734375 C166.40012249 425.47604929 164.60476024 426.94942113 162.83203125 428.44921875 C121.52207816 463.33317913 66.69507132 480.72710773 13.1328125 480.61328125 C12.16687164 480.61273743 11.20093079 480.6121936 10.20571899 480.6116333 C-5.69146444 480.57060916 -20.9742443 479.64585488 -36.5546875 476.23828125 C-37.54082031 476.02397461 -38.52695313 475.80966797 -39.54296875 475.58886719 C-80.68601851 466.32763679 -118.66455293 447.01341561 -149.5546875 418.23828125 C-150.94613416 417.02489906 -152.34177389 415.81630322 -153.7421875 414.61328125 C-160.23579506 408.92488103 -165.82997583 402.84849748 -171.23828125 396.11328125 C-172.72964128 394.26228465 -174.24130496 392.42737276 -175.77734375 390.61328125 C-186.48593264 377.92162035 -194.84788293 363.9027082 -202.5546875 349.23828125 C-202.90241211 348.58762695 -203.25013672 347.93697266 -203.60839844 347.26660156 C-214.77726192 326.11658788 -221.86063665 301.78641992 -225.5546875 278.23828125 C-225.73725098 277.08271729 -225.91981445 275.92715332 -226.10791016 274.73657227 C-227.70824137 263.46656388 -227.95385383 252.29750635 -227.9296875 240.92578125 C-227.92914368 239.95984039 -227.92859985 238.99389954 -227.92803955 237.99868774 C-227.88701541 222.10150431 -226.96226113 206.81872445 -223.5546875 191.23828125 C-223.34038086 190.25214844 -223.12607422 189.26601562 -222.90527344 188.25 C-213.64404304 147.10695024 -194.32982186 109.12841582 -165.5546875 78.23828125 C-164.34130531 76.84683459 -163.13270947 75.45119486 -161.9296875 74.05078125 C-123.16385022 29.67058133 -58.73818865 0.53610464 0 0 Z M-55.92578125 97.4140625 C-75.45238528 117.54981535 -82.60932516 149.28888965 -82.7578125 176.56640625 C-82.76473618 177.42998245 -82.77165985 178.29355865 -82.77879333 179.18330383 C-82.79597101 181.95167636 -82.80237846 184.71985797 -82.8046875 187.48828125 C-82.80602692 188.42936737 -82.80736633 189.37045349 -82.80874634 190.34005737 C-84.22358241 216.66359982 -84.22358241 216.66359982 -75.5546875 240.23828125 C-68.79330773 240.12442382 -65.00465354 237.11626834 -59.8046875 233.05078125 C-58.12523444 231.77573281 -56.4455397 230.50100265 -54.765625 229.2265625 C-53.47930176 228.23970459 -53.47930176 228.23970459 -52.16699219 227.23291016 C-47.95752988 224.01876931 -43.69377096 220.87936467 -39.4296875 217.73828125 C-38.67333008 217.1760083 -37.91697266 216.61373535 -37.13769531 216.03442383 C-32.04909733 212.26843522 -26.85196785 208.70422949 -21.5546875 205.23828125 C-21.44511719 206.13289063 -21.33554688 207.0275 -21.22265625 207.94921875 C-20.25835824 215.30297107 -18.97922613 222.2232828 -16.5546875 229.23828125 C-13.83662044 230.11896626 -13.83662044 230.11896626 -10.5546875 230.23828125 C-7.5452301 228.63415997 -7.5452301 228.63415997 -4.6796875 226.11328125 C-4.12796875 225.66533203 -3.57625 225.21738281 -3.0078125 224.75585938 C-1.81049957 223.78071451 -0.61963308 222.79761314 0.56542969 221.80761719 C3.158966 219.6425196 5.78500791 217.51840047 8.40917969 215.390625 C9.77356614 214.28341067 11.13618188 213.17401097 12.49707031 212.0625 C17.65310885 207.85449927 22.8925996 203.77457289 28.18359375 199.73828125 C33.98900254 195.30486434 39.70973468 190.7613906 45.4453125 186.23828125 C45.61659668 186.98924072 45.78788086 187.7402002 45.96435547 188.51391602 C46.74772069 191.94332075 47.53399087 195.37205323 48.3203125 198.80078125 C48.58972656 199.98220703 48.85914063 201.16363281 49.13671875 202.38085938 C49.89224613 205.6701676 50.66236703 208.95539994 51.4453125 212.23828125 C51.62658691 213.00841553 51.80786133 213.7785498 51.99462891 214.57202148 C52.8553975 217.9387866 53.17381247 219.03788837 56.0703125 221.17578125 C56.8540625 221.52640625 57.6378125 221.87703125 58.4453125 222.23828125 C65.18592391 218.13774264 71.21112371 213.26143844 77.29248047 208.26538086 C81.50080681 204.81067498 85.74167261 201.41597727 90.0703125 198.11328125 C91.10414063 197.32308594 92.13796875 196.53289062 93.203125 195.71875 C93.72551758 195.31962402 94.24791016 194.92049805 94.78613281 194.50927734 C97.85015458 192.16211764 100.90080312 189.79817818 103.9453125 187.42578125 C104.52104004 186.98153809 105.09676758 186.53729492 105.68994141 186.07958984 C109.19869948 183.33795372 112.35701201 180.44757859 115.4453125 177.23828125 C113.99686568 172.17263211 111.7927954 168.09156159 109.0078125 163.67578125 C108.56896729 162.97759277 108.13012207 162.2794043 107.67797852 161.56005859 C103.18491957 154.57862177 97.98342203 148.40350024 92.4453125 142.23828125 C91.671875 141.35527344 90.8984375 140.47226563 90.1015625 139.5625 C64.650212 110.75049582 28.49587315 83.68999298 -11.0546875 80.4296875 C-28.55069678 79.41656389 -43.15487507 85.69512553 -55.92578125 97.4140625 Z M-23.91210938 250.36816406 C-25.20024536 250.61552307 -26.48838135 250.86288208 -27.81555176 251.11773682 C-29.21828641 251.39175085 -30.62091255 251.66632089 -32.0234375 251.94140625 C-33.08612099 252.14905231 -33.08612099 252.14905231 -34.17027283 252.36089325 C-37.91700435 253.09358328 -41.6627146 253.83126811 -45.40771484 254.57275391 C-49.27215604 255.33677684 -53.13985031 256.08277042 -57.00856781 256.82478714 C-59.98748767 257.39965149 -62.96359078 257.98817698 -65.93910217 258.58040619 C-67.36380791 258.86145381 -68.78954847 259.13730835 -70.21629333 259.40781403 C-72.21276967 259.78762007 -74.20514821 260.18877729 -76.19726562 260.59082031 C-77.33103638 260.81288147 -78.46480713 261.03494263 -79.63293457 261.26373291 C-82.93521827 262.36520698 -84.39225155 263.54193104 -86.5546875 266.23828125 C-94.70999121 289.47617367 -91.10392608 317.4865507 -80.80395508 339.46191406 C-68.33815625 364.74071453 -48.49070676 384.93125449 -21.67163086 394.46655273 C4.7038564 403.30733038 32.82153665 401.71291262 57.8203125 389.42578125 C81.86795636 377.06250088 101.52880538 355.68557027 109.9609375 329.77734375 C113.08115607 319.59477682 114.65806506 310.21045721 114.7578125 299.55078125 C114.78681641 298.50599609 114.81582031 297.46121094 114.84570312 296.38476562 C114.85408203 295.38380859 114.86246094 294.38285156 114.87109375 293.3515625 C114.88567627 292.44188721 114.90025879 291.53221191 114.9152832 290.5949707 C114.61291165 288.15639006 114.61291165 288.15639006 112.94726562 286.32397461 C109.12413309 284.66497086 105.87304336 285.78560931 101.98828125 286.75390625 C101.15395065 286.94615784 100.31962006 287.13840942 99.46000671 287.33648682 C97.68650051 287.74687744 95.9148358 288.16529568 94.1449585 288.59106445 C91.51307359 289.22203611 88.87675569 289.82754228 86.23681641 290.42382812 C81.07245066 291.5920359 75.9148697 292.78828772 70.7578125 293.98828125 C68.96553529 294.40382055 67.17321772 294.81918581 65.38085938 295.234375 C61.06854548 296.2336842 56.75677424 297.23530214 52.4453125 298.23828125 C52.65736328 297.43197266 52.86941406 296.62566406 53.08789062 295.79492188 C53.87838763 292.77018498 54.6600595 289.7433357 55.43603516 286.71484375 C55.93636462 284.77300898 56.44661002 282.83373779 56.95703125 280.89453125 C59.3557226 271.67419151 59.3557226 271.67419151 59.4453125 262.23828125 C57.69524157 260.04140088 57.69524157 260.04140088 55.57363892 260.14292908 C47.86210929 260.99534373 40.42754645 262.75441519 32.90625 264.6171875 C31.53063079 264.9526519 30.15486506 265.28751599 28.77896118 265.62181091 C25.19043647 266.49537371 21.60393637 267.37697716 18.01782227 268.26037598 C14.34512033 269.16355626 10.67052675 270.05897164 6.99609375 270.95507812 C-0.18935402 272.70863053 -7.37267695 274.47069742 -14.5546875 276.23828125 C-14.39798584 275.65860596 -14.24128418 275.07893066 -14.07983398 274.48168945 C-13.37272359 271.84091321 -12.68233435 269.19603907 -11.9921875 266.55078125 C-11.74533203 265.63876953 -11.49847656 264.72675781 -11.24414062 263.78710938 C-10.90092773 262.45776367 -10.90092773 262.45776367 -10.55078125 261.1015625 C-10.22871704 259.88400269 -10.22871704 259.88400269 -9.90014648 258.6418457 C-9.49846705 255.84712204 -9.68722 253.92373014 -10.5546875 251.23828125 C-15.10905318 248.20203746 -18.79407362 249.38010767 -23.91210938 250.36816406 Z " fill="#B000FF" transform="translate(243.5546875,15.76171875)"/>
</svg>
